<?xml version="1.0" encoding="UTF-8" standalone="no"?>
<!-- Created with Inkscape (http://www.inkscape.org/) -->

<svg
   xmlns:dc="http://purl.org/dc/elements/1.1/"
   xmlns:cc="http://creativecommons.org/ns#"
   xmlns:rdf="http://www.w3.org/1999/02/22-rdf-syntax-ns#"
   xmlns:svg="http://www.w3.org/2000/svg"
   xmlns="http://www.w3.org/2000/svg"
   xmlns:sodipodi="http://sodipodi.sourceforge.net/DTD/sodipodi-0.dtd"
   xmlns:inkscape="http://www.inkscape.org/namespaces/inkscape"
   width="297mm"
   height="210mm"
   viewBox="0 0 297 210"
   version="1.1"
   id="svg8"
   inkscape:version="0.92.2 (5c3e80d, 2017-08-06)"
   sodipodi:docname="brujula.svg">
  <defs
     id="defs2" />
  <sodipodi:namedview
     id="base"
     pagecolor="#ffffff"
     bordercolor="#666666"
     borderopacity="1.0"
     inkscape:pageopacity="0.0"
     inkscape:pageshadow="2"
     inkscape:zoom="0.54115914"
     inkscape:cx="505.47032"
     inkscape:cy="402.66951"
     inkscape:document-units="mm"
     inkscape:current-layer="layer1"
     showgrid="false"
     inkscape:window-width="1366"
     inkscape:window-height="705"
     inkscape:window-x="-8"
     inkscape:window-y="-8"
     inkscape:window-maximized="1" />
  <metadata
     id="metadata5">
    <rdf:RDF>
      <cc:Work
         rdf:about="">
        <dc:format>image/svg+xml</dc:format>
        <dc:type
           rdf:resource="http://purl.org/dc/dcmitype/StillImage" />
        <dc:title></dc:title>
      </cc:Work>
    </rdf:RDF>
  </metadata>
  <g
     inkscape:label="Capa 1"
     inkscape:groupmode="layer"
     id="layer1"
     transform="translate(0,-87)">
    <ellipse
       style="opacity:1;fill:none;fill-opacity:1;fill-rule:nonzero;stroke:none;stroke-width:0.26499999;stroke-linecap:round;stroke-linejoin:round;stroke-miterlimit:4;stroke-dasharray:none;stroke-dashoffset:0;stroke-opacity:1;paint-order:markers fill stroke"
       id="path924"
       cx="151.80956"
       cy="190.17107"
       rx="73.582405"
       ry="71.626732" />
    <ellipse
       style="opacity:1;fill:none;fill-opacity:1;fill-rule:nonzero;stroke:none;stroke-width:0.26499996;stroke-linecap:round;stroke-linejoin:round;stroke-miterlimit:4;stroke-dasharray:none;stroke-dashoffset:0;stroke-opacity:1;paint-order:markers fill stroke"
       id="path924-4"
       cx="151.80956"
       cy="190.3763"
       rx="67.324661"
       ry="65.059235" />
    <path
       style="opacity:1;fill:#784421;fill-opacity:1;fill-rule:nonzero;stroke:none;stroke-width:0.26499999;stroke-linecap:round;stroke-linejoin:round;stroke-miterlimit:4;stroke-dasharray:none;stroke-dashoffset:0;stroke-opacity:1;paint-order:markers fill stroke"
       d="m 143.57301,261.07358 c -21.0096,-2.32236 -40.34384,-13.69299 -52.315198,-30.76702 -23.048541,-32.87274 -13.812741,-77.89247 20.473118,-99.79586 18.75918,-11.98424 42.34571,-14.90198 63.66298,-7.87537 5.53552,1.82462 13.25301,5.61033 17.87583,8.76875 1.97694,1.35069 3.80335,2.33299 4.05869,2.1829 0.25533,-0.15009 0.34312,-0.0865 0.19508,0.14133 -0.38714,0.59578 1.68288,2.32921 2.32838,1.94978 0.30593,-0.17983 0.41977,-0.14172 0.26913,0.0901 -0.25134,0.38679 5.86571,6.49781 6.50421,6.49781 0.17204,0 0.25539,0.16383 0.18521,0.36407 -0.19662,0.56101 1.70699,2.31192 2.19907,2.02267 0.25313,-0.1488 0.30166,-0.05 0.1159,0.23586 -0.39913,0.61422 0.55515,1.7726 1.16497,1.41414 0.26681,-0.15684 0.31951,-0.0643 0.12973,0.22773 -0.35575,0.54747 0.52463,1.79055 1.04956,1.48198 0.18368,-0.10796 0.30732,0.12496 0.27478,0.51761 -0.0325,0.39264 0.16075,0.67497 0.42952,0.62738 0.26878,-0.0476 0.46299,0.22948 0.43157,0.6157 -0.0314,0.38622 0.20008,0.65147 0.51442,0.58944 0.31435,-0.062 0.45022,0.0739 0.30194,0.3021 -0.38377,0.59059 1.91723,4.17757 2.47103,3.85203 0.25145,-0.1478 0.33269,-0.0772 0.18053,0.15702 -0.15216,0.23416 0.6099,2.23018 1.69347,4.43558 9.87372,20.09615 9.62467,43.85943 -0.66405,63.35968 -1.2144,2.30166 -2.07478,4.38986 -1.91195,4.64043 0.17074,0.26276 0.10076,0.34081 -0.16534,0.18439 -0.59655,-0.35066 -2.42091,2.44008 -2.00925,3.07358 0.1856,0.28564 0.12675,0.37202 -0.14474,0.21243 -0.55586,-0.32674 -3.69412,3.70822 -3.32544,4.2756 0.14368,0.2211 0.10114,0.35233 -0.0945,0.29162 -0.55924,-0.17352 -10.95797,10.18379 -10.60094,10.55871 0.17551,0.18432 0.0641,0.19506 -0.24754,0.0239 -0.68397,-0.37569 -2.33871,0.92481 -1.9459,1.52933 0.15954,0.2455 0.0581,0.29314 -0.24486,0.11504 -0.6458,-0.37962 -1.86373,0.52801 -1.48684,1.10801 0.1649,0.25377 0.0676,0.30389 -0.23944,0.12339 -0.57561,-0.33835 -1.88259,0.49898 -1.55815,0.99825 0.11351,0.17469 -0.13139,0.2923 -0.54422,0.26135 -0.41514,-0.0311 -0.6976,0.18667 -0.63201,0.48732 0.0652,0.29897 -0.0826,0.42536 -0.3284,0.28085 -0.24583,-0.1445 -1.56153,0.37553 -2.92377,1.15564 -13.20924,7.56444 -29.80303,10.97861 -45.12655,9.28478 z m 19.35269,-6.29021 c 14.81456,-2.53825 27.19947,-8.87772 37.52852,-19.20975 8.66593,-8.66842 14.29993,-18.72877 17.33148,-30.94794 1.14363,-4.60958 1.21401,-5.43104 1.21075,-14.12965 -0.003,-7.99812 -0.13152,-9.79363 -0.9592,-13.40087 -5.9262,-25.82825 -25.83028,-45.00553 -52.66669,-50.74358 -5.77747,-1.23532 -20.77952,-1.31984 -26.40454,-0.14877 -6.87627,1.43156 -15.78511,4.47105 -15.29872,5.21956 0.13126,0.20201 -0.0476,0.26282 -0.39739,0.13514 -0.79926,-0.29171 -2.54031,0.56028 -2.20365,1.07837 0.14138,0.21757 -0.072,0.26757 -0.49028,0.11489 -0.54221,-0.19789 -0.64595,-0.12468 -0.3873,0.27336 0.23823,0.36661 0.18681,0.4458 -0.15789,0.24318 -0.60156,-0.35361 -4.49357,1.7029 -4.16877,2.20274 0.12187,0.18755 -0.11618,0.31568 -0.52901,0.28473 -0.41514,-0.0311 -0.6976,0.18667 -0.63202,0.48732 0.0652,0.29898 -0.0818,0.42583 -0.32662,0.28189 -0.56914,-0.33455 -3.11953,1.37074 -2.7956,1.86924 0.1338,0.20591 -0.0344,0.27305 -0.3737,0.1492 -0.83494,-0.30473 -10.77259,8.77608 -10.45785,9.55617 0.12699,0.31476 0.0649,0.4747 -0.13805,0.35542 -0.56654,-0.33302 -1.908958,1.28405 -1.538818,1.85367 0.19459,0.29945 0.14464,0.39389 -0.12461,0.23562 -0.60981,-0.35846 -1.56409,0.79992 -1.16497,1.41414 0.20091,0.30918 0.13663,0.3843 -0.17308,0.20225 -1.11042,-0.65272 -7.42364,10.41306 -9.7904,17.16056 -4.732655,13.49253 -4.734753,28.40151 -0.006,41.90442 2.01511,5.75398 4.40015,10.60068 5.03339,10.22845 0.31383,-0.18447 0.39352,-0.12209 0.20825,0.16302 -0.42143,0.64854 0.95302,3.04238 1.5465,2.69352 0.29891,-0.17571 0.35795,-0.0944 0.15654,0.2155 -0.4307,0.66282 1.79725,3.85234 2.4308,3.47993 0.29899,-0.17575 0.36067,-0.0967 0.16248,0.20834 -0.38399,0.59094 1.7911,3.44916 2.36713,3.11056 0.21917,-0.12883 0.297888,0.0151 0.17494,0.31986 -0.12296,0.30476 0.267668,0.99304 0.868078,1.52951 0.6004,0.53648 1.09164,0.82824 1.09164,0.64836 0,-0.17987 0.28917,-0.0988 0.6426,0.18019 0.35343,0.27899 0.52498,0.68825 0.38122,0.90949 -0.36703,0.56483 3.3633,4.08164 4.05982,3.82743 0.31437,-0.11473 0.47129,-0.0543 0.34872,0.13434 -0.35966,0.55349 2.19652,2.65129 2.79905,2.29711 0.33155,-0.19489 0.4234,-0.14434 0.24277,0.13364 -0.38674,0.59516 2.55798,2.71231 3.22619,2.31952 0.31962,-0.18787 0.40385,-0.12986 0.22069,0.15201 -0.36385,0.55994 1.67092,1.90004 2.31241,1.52297 0.25368,-0.14912 0.40787,-0.0535 0.34265,0.2125 -0.14838,0.60516 4.85766,3.33715 5.62211,3.06821 0.30903,-0.10872 0.4583,-0.0383 0.3317,0.15655 -0.30444,0.46851 4.56713,2.51329 9.67985,4.063 3.55556,1.07771 9.05056,2.12608 14.24176,2.71712 2.80728,0.31962 13.1398,-0.13565 16.62302,-0.73244 z"
       id="path941"
       inkscape:connector-curvature="0" />
    <ellipse
       style="opacity:1;fill:none;fill-opacity:1;fill-rule:nonzero;stroke:none;stroke-width:0.26499999;stroke-linecap:round;stroke-linejoin:round;stroke-miterlimit:4;stroke-dasharray:none;stroke-dashoffset:0;stroke-opacity:1;paint-order:markers fill stroke"
       id="path943"
       cx="152.45692"
       cy="190.37627"
       rx="63.008984"
       ry="61.159786" />
    <path
       style="opacity:1;fill:#d45500;fill-opacity:1;fill-rule:nonzero;stroke:none;stroke-width:0.26499999;stroke-linecap:round;stroke-linejoin:round;stroke-miterlimit:4;stroke-dasharray:none;stroke-dashoffset:0;stroke-opacity:1;paint-order:markers fill stroke"
       d="m 146.70472,256.70686 c -11.28209,-0.71437 -22.71505,-4.47789 -32.59114,-10.7284 -3.88441,-2.45842 -11.65779,-8.72407 -12.06026,-9.72105 -0.13906,-0.34447 -1.18726,-1.53824 -2.329338,-2.65281 -6.95635,-6.78885 -13.46072,-19.98018 -15.59334,-31.62445 -1.041479,-5.68658 -1.237528,-15.63417 -0.41137,-20.87343 2.39622,-15.19623 9.53432,-28.36176 21.140958,-38.99246 9.33563,-8.55063 20.50612,-14.16125 33.71204,-16.9326 3.66346,-0.7688 5.78603,-0.91704 13.23176,-0.92415 9.58884,-0.009 13.72008,0.55689 21.33015,2.9225 5.18937,1.61312 13.60354,5.63994 18.13396,8.67847 5.08588,3.41109 12.95369,10.87976 16.48554,15.64924 5.65506,7.63676 10.1265,17.76338 11.95283,27.06999 1.00858,5.13959 1.14027,17.65816 0.2372,22.55033 -2.79077,15.11842 -9.6937,27.46437 -21.23293,37.97538 -13.99931,12.75186 -32.06303,18.86622 -52.00606,17.60344 z m 18.62352,-4.3583 c 8.51863,-1.78834 17.46356,-5.46327 23.91937,-9.82702 21.65244,-14.6358 32.10263,-39.49317 27.0553,-64.35515 -5.12439,-25.24162 -25.64046,-44.83598 -52.15149,-49.80849 -5.50531,-1.0326 -17.53561,-1.03277 -22.97331,-4.6e-4 -5.61246,1.06562 -12.30385,3.15898 -11.93094,3.73254 0.18666,0.28707 0.0963,0.34301 -0.23737,0.14696 -0.66155,-0.38864 -3.22739,0.56255 -2.89529,1.07332 0.1315,0.20228 -0.0524,0.26137 -0.40903,0.13134 -0.89332,-0.32586 -3.495,1.00605 -3.11296,1.59365 0.18179,0.27962 0.10345,0.35044 -0.19419,0.17558 -0.6121,-0.3596 -3.30515,0.90226 -2.98302,1.39772 0.1273,0.19578 -0.11561,0.32995 -0.53977,0.29817 -0.42653,-0.032 -0.71675,0.19169 -0.64936,0.50042 0.067,0.30702 -0.0914,0.43293 -0.35207,0.2798 -0.6591,-0.38721 -2.74973,0.98891 -2.37589,1.5639 0.18823,0.28952 0.10163,0.34902 -0.22701,0.15594 -0.66352,-0.38981 -1.91488,0.54222 -1.52765,1.13781 0.17184,0.26429 0.0687,0.31157 -0.25942,0.11883 -0.61758,-0.36283 -2.80348,1.36976 -2.43778,1.93223 0.12709,0.19547 -0.031,0.25981 -0.35132,0.14297 -0.82705,-0.30169 -6.76268,5.46781 -6.32223,6.14527 0.20561,0.31624 0.16406,0.42368 -0.10315,0.26671 -0.64361,-0.37811 -2.51618,1.64363 -2.10628,2.27406 0.20276,0.31186 0.15304,0.40995 -0.12501,0.24661 -0.62656,-0.36811 -1.60704,0.82141 -1.19695,1.45214 0.20655,0.31769 0.14036,0.39463 -0.17836,0.20738 -0.63268,-0.37168 -4.188148,4.73258 -3.861028,5.5429 0.12782,0.31664 0.0299,0.45189 -0.22066,0.3047 -0.59386,-0.34888 -4.00432,6.53375 -5.75237,11.60883 -2.43285,7.06325 -3.23694,12.96208 -2.95799,21.69993 0.30128,9.43713 1.37792,14.43846 4.83185,22.4454 0.78879,1.82859 1.50735,2.94535 1.78875,2.78002 0.26235,-0.15412 0.34137,-0.0779 0.1787,0.17226 -0.38334,0.5896 0.13535,1.85025 0.63944,1.5541 0.21553,-0.12661 0.26048,0.0953 0.0999,0.49308 -0.21378,0.52956 -0.13469,0.63087 0.2953,0.37827 0.38528,-0.22636 0.48122,-0.18191 0.27894,0.12921 -0.433,0.66599 0.97918,3.12417 1.58896,2.76593 0.30712,-0.18043 0.36777,-0.097 0.16084,0.2213 -0.44252,0.68063 1.84659,3.95589 2.497538,3.57346 0.30719,-0.18047 0.37057,-0.0993 0.16694,0.21393 -0.39454,0.60684 1.84028,3.54189 2.43212,3.19418 0.22518,-0.13228 0.30931,0.008 0.18694,0.3106 -0.3195,0.79147 8.40649,8.96294 9.12219,8.54248 0.35143,-0.20646 0.44831,-0.15794 0.26072,0.1306 -0.39736,0.61116 2.6282,2.78522 3.31476,2.38187 0.32948,-0.19356 0.41492,-0.13333 0.22506,0.15869 -0.40232,0.61877 3.04325,2.79476 3.75926,2.3741 0.33557,-0.19715 0.42261,-0.13904 0.23165,0.15467 -0.37836,0.58192 3.09314,2.34408 3.79991,1.92887 0.32507,-0.19098 0.37129,-0.0989 0.13375,0.26643 -0.26574,0.40874 -0.15915,0.48393 0.39794,0.2807 0.41849,-0.15264 0.6562,-0.11652 0.52825,0.0803 -0.33492,0.51511 3.10716,1.89749 3.76393,1.51165 0.32973,-0.19373 0.43792,-0.15034 0.26981,0.10823 -0.52066,0.80081 8.12414,3.36004 14.56398,4.31159 4.08384,0.60343 18.02203,0.22185 21.93981,-0.60062 z m -57.8938,-17.18426 -1.30237,-1.36988 1.44111,1.23798 c 1.34332,1.15398 1.64493,1.50178 1.30236,1.50178 -0.0764,0 -0.72481,-0.61645 -1.4411,-1.36988 z"
       id="path945"
       inkscape:connector-curvature="0" />
    <ellipse
       style="opacity:1;fill:none;fill-opacity:1;fill-rule:nonzero;stroke:#000000;stroke-width:3.80000019;stroke-linecap:butt;stroke-linejoin:round;stroke-miterlimit:4;stroke-dasharray:3.79999996, 7.59999993;stroke-dashoffset:0;stroke-opacity:1;paint-order:markers stroke fill"
       id="path947"
       cx="152.24112"
       cy="190.58153"
       rx="61.498493"
       ry="59.312675" />
    <text
       xml:space="preserve"
       style="font-style:normal;font-variant:normal;font-weight:normal;font-stretch:normal;font-size:9.11065578px;line-height:1.25;font-family:Castellar;-inkscape-font-specification:Castellar;letter-spacing:0px;word-spacing:0px;fill:#000000;fill-opacity:1;stroke:none;stroke-width:0.26458332"
       x="143.63266"
       y="148.91063"
       id="text959"
       transform="scale(1.0253803,0.97524792)"><tspan
         sodipodi:role="line"
         id="tspan957"
         x="143.63266"
         y="148.91063"
         style="stroke-width:0.26458332">N</tspan></text>
    <text
       xml:space="preserve"
       style="font-style:normal;font-variant:normal;font-weight:normal;font-stretch:normal;font-size:9.11065578px;line-height:1.25;font-family:Castellar;-inkscape-font-specification:Castellar;letter-spacing:0px;word-spacing:0px;fill:#000000;fill-opacity:1;stroke:none;stroke-width:0.26458332"
       x="193.71812"
       y="196.04988"
       id="text963"
       transform="scale(1.0253803,0.97524792)"><tspan
         sodipodi:role="line"
         id="tspan961"
         x="193.71812"
         y="196.04988"
         style="stroke-width:0.26458332">E</tspan></text>
    <text
       xml:space="preserve"
       style="font-style:normal;font-variant:normal;font-weight:normal;font-stretch:normal;font-size:9.11065578px;line-height:1.25;font-family:Castellar;-inkscape-font-specification:Castellar;letter-spacing:0px;word-spacing:0px;fill:#000000;fill-opacity:1;stroke:none;stroke-width:0.26458332"
       x="96.072502"
       y="198.1543"
       id="text967"
       transform="scale(1.0253803,0.97524792)"><tspan
         sodipodi:role="line"
         id="tspan965"
         x="96.072502"
         y="198.1543"
         style="stroke-width:0.26458332">O</tspan></text>
    <text
       xml:space="preserve"
       style="font-style:normal;font-variant:normal;font-weight:normal;font-stretch:normal;font-size:9.11065578px;line-height:1.25;font-family:Castellar;-inkscape-font-specification:Castellar;letter-spacing:0px;word-spacing:0px;fill:#000000;fill-opacity:1;stroke:none;stroke-width:0.26458332"
       x="144.05354"
       y="244.03087"
       id="text971"
       transform="scale(1.0253803,0.97524792)"><tspan
         sodipodi:role="line"
         id="tspan969"
         x="144.05354"
         y="244.03087"
         style="stroke-width:0.26458332">S</tspan></text>
    <ellipse
       style="opacity:1;fill:#000000;fill-opacity:1;fill-rule:nonzero;stroke:#000000;stroke-width:4.0999999;stroke-linecap:butt;stroke-linejoin:round;stroke-miterlimit:4;stroke-dasharray:none;stroke-dashoffset:0;stroke-opacity:1;paint-order:markers stroke fill"
       id="path973"
       cx="154.54236"
       cy="188.03117"
       rx="4.273387"
       ry="3.751653" />
  </g>
</svg>
